<?xml version="1.0" encoding="UTF-8" standalone="no"?>

<svg
  xmlns:dc="http://purl.org/dc/elements/1.1/"
  xmlns:cc="http://creativecommons.org/ns#"
  xmlns:rdf="http://www.w3.org/1999/02/22-rdf-syntax-ns#"
  xmlns:svg="http://www.w3.org/2000/svg"
  xmlns="http://www.w3.org/2000/svg"
  height="337.62643"
  width="901"
  version="1.0"
  id="svg2"
>

 <defs
id="defs4" />
 <metadata
id="metadata6">
  <rdf:RDF>
 <cc:Work
  rdf:about="">
  <dc:format>image/svg+xml</dc:format>
  <dc:type
 rdf:resource="http://purl.org/dc/dcmitype/StillImage" />
  <dc:title />
 </cc:Work>
  </rdf:RDF>
 </metadata>
<path
d="m 0.5,0.5 60,0 0,60 -60,0 0,-60 z"
id="path8"
style="fill:#ffffff;stroke:#000000" />

<path
d="m 60.5,0.5 60,0 0,60 -60,0 0,-60 z"
id="path10"
style="fill:#ffffff;stroke:#000000" />

<path
d="m 120.5,0.5 60,0 0,60 -60,0 0,-60 z"
id="path12"
style="fill:#ffffff;stroke:#000000" />

<path
d="m 180.5,0.5 60,0 0,60 -60,0 0,-60 z"
id="path14"
style="fill:#ffffff;stroke:#000000" />

<path
d="m 240.5,0.5 60,0 0,60 -60,0 0,-60 z"
id="path16"
style="fill:#ffffff;stroke:#000000" />

<path
d="m 300.5,0.5 60,0 0,60 -60,0 0,-60 z"
id="path18"
style="fill:#ffffff;stroke:#000000" />

<path
d="m 360.5,0.5 60,0 0,60 -60,0 0,-60 z"
id="path20"
style="fill:#ffffff;stroke:#000000" />

<path
d="m 420.5,0.5 60,0 0,60 -60,0 0,-60 z"
id="path22"
style="fill:#ffffff;stroke:#000000" />

<path
d="m 480.5,0.5 60,0 0,60 -60,0 0,-60 z"
id="path24"
style="fill:#ffffff;stroke:#000000" />

<path
d="m 540.5,0.5 60,0 0,60 -60,0 0,-60 z"
id="path26"
style="fill:#ffffff;stroke:#000000" />

<path
d="m 600.5,0.5 60,0 0,60 -60,0 0,-60 z"
id="path28"
style="fill:#ffffff;stroke:#000000" />

<path
d="m 660.5,0.5 60,0 0,60 -60,0 0,-60 z"
id="path30"
style="fill:#ffffff;stroke:#000000" />

<path
d="m 720.5,0.5 60,0 0,60 -60,0 0,-60 z"
id="path32"
style="fill:#ffffff;stroke:#000000" />

<path
d="m 780.5,0.5 120,0 0,60 -120,0 0,-60 z"
id="path34"
style="fill:#dfdfdf;stroke:#000000;" />
<path
d="m 0.5,60.5 90,0 0,60 -90,0 0,-60 z"
id="path36"
style="fill:#dfdfdf;stroke:#000000;" />
<path
d="m 90.5,60.5 60,0 0,60 -60,0 0,-60 z"
id="path38"
style="fill:#ffffff;stroke:#000000" />

<path
d="m 150.5,60.5 60,0 0,60 -60,0 0,-60 z"
id="path40"
style="fill:#ffffff;stroke:#000000" />

<path
d="m 210.5,60.5 60,0 0,60 -60,0 0,-60 z"
id="path42"
style="fill:#ffffff;stroke:#000000" />

<path
d="m 270.5,60.5 60,0 0,60 -60,0 0,-60 z"
id="path44"
style="fill:#ffffff;stroke:#000000" />

<path
d="m 330.5,60.5 60,0 0,60 -60,0 0,-60 z"
id="path46"
style="fill:#ffffff;stroke:#000000" />

<path
d="m 390.5,60.5 60,0 0,60 -60,0 0,-60 z"
id="path48"
style="fill:#ffffff;stroke:#000000" />

<path
d="m 450.5,60.5 60,0 0,60 -60,0 0,-60 z"
id="path50"
style="fill:#ffffff;stroke:#000000" />

<path
d="m 510.5,60.5 60,0 0,60 -60,0 0,-60 z"
id="path52"
style="fill:#ffffff;stroke:#000000" />

<path
d="m 570.5,60.5 60,0 0,60 -60,0 0,-60 z"
id="path54"
style="fill:#ffffff;stroke:#000000" />

<path
d="m 630.5,60.5 60,0 0,60 -60,0 0,-60 z"
id="path56"
style="fill:#ffffff;stroke:#000000" />

<path
d="m 690.5,60.5 60,0 0,60 -60,0 0,-60 z"
id="path58"
style="fill:#ffffff;stroke:#000000" />

<path
d="m 750.5,60.5 60,0 0,60 -60,0 0,-60 z"
id="path60"
style="fill:#ffffff;stroke:#000000" />

<path
d="m 810.5,60.5 90,0 0,60 -90,0 0,-60 z"
id="path62"
style="fill:#ffffff;stroke:#000000" />

<path
d="m 0.5,120.5 105,0 0,60 -105,0 0,-60 z"
id="path64"
style="fill:#dfdfdf;stroke:#000000;" />
<path
d="m 105.5,120.5 60,0 0,60 -60,0 0,-60 z"
id="path66"
style="fill:#ffdd6b;stroke:#000000;" />
<path
d="m 165.5,120.5 60,0 0,60 -60,0 0,-60 z"
id="path68"
style="fill:#ffdd6b;stroke:#000000;" />
<path
d="m 225.5,120.5 60,0 0,60 -60,0 0,-60 z"
id="path70"
style="fill:#ffdd6b;stroke:#000000;" />
<path
d="m 285.5,120.5 60,0 0,60 -60,0 0,-60 z"
id="path72"
style="fill:#ffdd6b;stroke:#000000;" />
<path
d="m 345.5,120.5 60,0 0,60 -60,0 0,-60 z"
id="path74"
style="fill:#ffffff;stroke:#000000" />

<path
d="m 405.5,120.5 60,0 0,60 -60,0 0,-60 z"
id="path76"
style="fill:#ffffff;stroke:#000000" />

<path
d="m 465.5,120.5 60,0 0,60 -60,0 0,-60 z"
id="path78"
style="fill:#ffdd6b;stroke:#000000;" />
<path
d="m 525.5,120.5 60,0 0,60 -60,0 0,-60 z"
id="path80"
style="fill:#ffdd6b;stroke:#000000;" />
<path
d="m 585.5,120.5 60,0 0,60 -60,0 0,-60 z"
id="path82"
style="fill:#ffdd6b;stroke:#000000;" />
<path
d="m 645.5,120.5 60,0 0,60 -60,0 0,-60 z"
id="path84"
style="fill:#ffdd6b;stroke:#000000;" />
<path
d="m 705.5,120.5 60,0 0,60 -60,0 0,-60 z"
id="path86"
style="fill:#ffffff;stroke:#000000" />

<path
d="m 765.5,120.5 135,0 0,60 -135,0 0,-60 z"
id="path88"
style="fill:#dfdfdf;stroke:#000000;" />
<path
d="m 0.5,180.5 135,0 0,60 -135,0 0,-60 z"
id="path90"
style="fill:#dfdfdf;stroke:#000000;" />
<path
d="m 135.5,180.5 60,0 0,60 -60,0 0,-60 z"
id="path92"
style="fill:#ffffff;stroke:#000000" />

<path
d="m 195.5,180.5 60,0 0,60 -60,0 0,-60 z"
id="path94"
style="fill:#ffffff;stroke:#000000" />

<path
d="m 255.5,180.5 60,0 0,60 -60,0 0,-60 z"
id="path96"
style="fill:#ffffff;stroke:#000000" />

<path
d="m 315.5,180.5 60,0 0,60 -60,0 0,-60 z"
id="path98"
style="fill:#ffffff;stroke:#000000" />

<path
d="m 375.5,180.5 60,0 0,60 -60,0 0,-60 z"
id="path100"
style="fill:#ffffff;stroke:#000000" />
 <!-- xxx -->
<path
d="m 435.5,180.5 60,0 0,60 -60,0 0,-60 z"
id="path102"
style="fill:#ffffff;stroke:#000000" />

<path
d="m 495.5,180.5 60,0 0,60 -60,0 0,-60 z"
id="path104"
style="fill:#ffffff;stroke:#000000" />

<path
d="m 555.5,180.5 60,0 0,60 -60,0 0,-60 z"
id="path106"
style="fill:#ffffff;stroke:#000000" />

<path
d="m 615.5,180.5 60,0 0,60 -60,0 0,-60 z"
id="path108"
style="fill:#ffffff;stroke:#000000" />

<path
d="m 675.5,180.5 60,0 0,60 -60,0 0,-60 z"
id="path110"
style="fill:#ffffff;stroke:#000000" />

<path
d="m 735.5,180.5 165,0 0,60 -165,0 0,-60 z"
id="path112"
style="fill:#dfdfdf;stroke:#000000;" />
<path
d="m 0.5,240.5 90,0 0,60 -90,0 0,-60 z"
id="path114"
style="fill:#dfdfdf;stroke:#000000;" />
<path
d="m 810.5,240.5 90,0 0,60 -90,0 0,-60 z"
id="path116"
style="fill:#dfdfdf;stroke:#000000;" />
<path
d="m 150.5,240.5 90,0 0,60 -90,0 0,-60 z"
id="path118"
style="fill:#dfdfdf;stroke:#000000;" />
<path
d="m 600.5,240.5 90,0 0,60 -90,0 0,-60 z"
id="path120"
style="fill:#dfdfdf;stroke:#000000;" />
<path
d="m 240.5,240.5 360,0 0,60 -360,0 0,-60 z"
id="path122"
style="fill:#ffffff;stroke:#000000" />

<path
d="m 90.5,240.5 60,0 0,60 -60,0 0,-60 z"
id="path124"
style="fill:#efefef;stroke:#000000;" />
<path
d="m 690.5,240.5 60,0 0,60 -60,0 0,-60 z"
id="path126"
style="fill:#efefef;stroke:#000000;" />
<path
d="m 750.5,240.5 60,0 0,60 -60,0 0,-60 z"
id="path128"
style="fill:#efefef;stroke:#000000;" />
<path
d="m 714.74,147.4 12,0 0,2.39 -12,0 0,-2.39 m 2.71,21.95 0,-3.21 6.59,0 0,3.21 -6.59,0"
id="path152"
 />
<path
d="m 764.32,69.822 2.37,0 0,5.976 5.83,0 0,2.332 -5.83,0 0,6 -2.37,0 0,-6 -5.84,0 0,-2.332 5.84,0 0,-5.976 m -5.84,38.498 14.04,0 0,2.33 -14.04,0 0,-2.33 m 0,-5.04 14.04,0 0,2.33 -14.04,0 0,-2.33"
id="path154"
 />
<path
d="m 11.57,96.102 0,-9.454 -3.4138,0 0,-2.054 9.1718,0 0,2.054 -3.39,0 0,9.454 -2.368,0 m 11.789,-1.055 c -0.286,0.443 -0.661,0.781 -1.125,1.015 -0.463,0.23 -1.002,0.344 -1.617,0.344 -0.823,0 -1.458,-0.234 -1.906,-0.703 -0.443,-0.469 -0.664,-1.135 -0.664,-2 0,-0.802 0.221,-1.414 0.664,-1.836 0.448,-0.422 1.185,-0.711 2.211,-0.867 0.234,-0.036 0.542,-0.078 0.922,-0.125 0.963,-0.125 1.445,-0.404 1.445,-0.836 0,-0.344 -0.107,-0.588 -0.32,-0.734 -0.214,-0.151 -0.571,-0.227 -1.071,-0.227 -0.458,0 -0.809,0.091 -1.054,0.274 -0.245,0.182 -0.367,0.442 -0.367,0.781 l 0,0.125 -2.125,0 0,-0.156 c 0,-0.87 0.307,-1.553 0.921,-2.047 0.615,-0.5 1.464,-0.75 2.547,-0.75 1.188,0 2.097,0.205 2.727,0.617 0.635,0.411 0.953,1.005 0.953,1.781 l 0,4.828 c 0,0.354 0.036,0.62 0.109,0.797 0.073,0.172 0.196,0.302 0.368,0.391 l 0,0.383 -2.368,0 C 23.531,95.956 23.471,95.794 23.43,95.617 23.388,95.44 23.365,95.25 23.359,95.047 M 23.32,91.922 c -0.369,0.172 -0.797,0.31 -1.281,0.414 -0.479,0.104 -0.727,0.159 -0.742,0.164 -0.401,0.115 -0.682,0.258 -0.844,0.43 -0.156,0.172 -0.234,0.409 -0.234,0.711 0,0.312 0.101,0.562 0.304,0.75 0.204,0.182 0.477,0.273 0.821,0.273 0.614,0 1.096,-0.172 1.445,-0.516 0.354,-0.349 0.531,-0.822 0.531,-1.421 l 0,-0.805 m 4.219,-7.328 2.211,0 0,4.07 c 0.281,-0.443 0.633,-0.776 1.055,-1 0.427,-0.229 0.911,-0.344 1.453,-0.344 1.026,0 1.864,0.425 2.515,1.274 0.651,0.844 0.977,1.942 0.977,3.297 0,1.343 -0.326,2.429 -0.977,3.257 -0.651,0.829 -1.5,1.243 -2.546,1.243 -0.547,0 -1.024,-0.115 -1.43,-0.344 -0.401,-0.229 -0.766,-0.594 -1.094,-1.094 l 0,1.149 -2.164,0 0,-11.508 m 5.953,7.203 c 0,-0.781 -0.164,-1.393 -0.492,-1.836 -0.328,-0.448 -0.779,-0.672 -1.352,-0.672 -0.604,0 -1.072,0.219 -1.406,0.656 -0.328,0.433 -0.492,1.05 -0.492,1.852 0,0.864 0.156,1.521 0.469,1.969 0.317,0.448 0.778,0.672 1.383,0.672 0.614,0 1.083,-0.224 1.406,-0.672 0.323,-0.453 0.484,-1.11 0.484,-1.969"
id="path156"
 />
<path
d="m 790.27,44.869 2.8,0 c 0.66,0 1.14,-0.12 1.45,-0.359 0.3,-0.24 0.45,-0.617 0.45,-1.133 0,-0.537 -0.15,-0.922 -0.45,-1.156 -0.29,-0.24 -0.78,-0.36 -1.47,-0.36 l -2.78,0 0,3.008 m 0,-4.976 2.7,0 c 0.58,0 1.01,-0.099 1.28,-0.297 0.27,-0.203 0.41,-0.521 0.41,-0.953 0,-0.422 -0.14,-0.727 -0.4,-0.914 -0.26,-0.193 -0.7,-0.29 -1.31,-0.29 l -2.68,0 0,2.454 m -2.27,7.054 0,-11.508 5.42,0 c 1.18,0 2.07,0.25 2.69,0.75 0.62,0.495 0.93,1.217 0.93,2.165 0,0.583 -0.12,1.07 -0.34,1.46 -0.23,0.391 -0.58,0.693 -1.04,0.907 0.6,0.239 1.04,0.586 1.33,1.039 0.3,0.448 0.45,1.008 0.45,1.679 0,1.12 -0.37,1.985 -1.1,2.594 -0.73,0.61 -1.76,0.914 -3.1,0.914 l -5.24,0 m 15.95,-1.054 c -0.28,0.442 -0.66,0.781 -1.12,1.015 -0.47,0.229 -1,0.344 -1.62,0.344 -0.82,0 -1.46,-0.234 -1.91,-0.703 -0.44,-0.469 -0.66,-1.136 -0.66,-2 0,-0.802 0.22,-1.414 0.66,-1.836 0.45,-0.422 1.19,-0.711 2.22,-0.867 0.23,-0.037 0.54,-0.078 0.92,-0.125 0.96,-0.125 1.44,-0.404 1.44,-0.836 0,-0.344 -0.1,-0.589 -0.32,-0.735 -0.21,-0.151 -0.57,-0.226 -1.07,-0.226 -0.46,0 -0.81,0.091 -1.05,0.273 -0.25,0.183 -0.37,0.443 -0.37,0.782 l 0,0.125 -2.12,0 0,-0.157 c 0,-0.87 0.3,-1.552 0.92,-2.047 0.61,-0.5 1.46,-0.75 2.54,-0.75 1.19,0 2.1,0.206 2.73,0.618 0.64,0.411 0.95,1.005 0.95,1.781 l 0,4.828 c 0,0.354 0.04,0.62 0.11,0.797 0.08,0.172 0.2,0.302 0.37,0.39 l 0,0.383 -2.37,0 c -0.08,-0.146 -0.13,-0.307 -0.18,-0.484 -0.04,-0.177 -0.06,-0.367 -0.07,-0.57 m -0.04,-3.125 c -0.37,0.171 -0.79,0.309 -1.28,0.414 -0.48,0.104 -0.72,0.158 -0.74,0.164 -0.4,0.114 -0.68,0.258 -0.84,0.429 -0.16,0.172 -0.24,0.409 -0.24,0.711 0,0.313 0.1,0.563 0.31,0.75 0.2,0.183 0.47,0.274 0.82,0.274 0.61,0 1.09,-0.172 1.44,-0.516 0.36,-0.349 0.53,-0.823 0.53,-1.422 l 0,-0.804 m 9.31,0.976 2.24,0 c -0.09,1.078 -0.49,1.93 -1.18,2.555 -0.69,0.625 -1.58,0.937 -2.67,0.937 -1.23,0 -2.2,-0.401 -2.91,-1.203 -0.69,-0.807 -1.04,-1.922 -1.04,-3.344 0,-1.416 0.35,-2.526 1.07,-3.328 0.72,-0.807 1.7,-1.211 2.96,-1.211 1.1,0 1.98,0.292 2.64,0.875 0.66,0.584 1.04,1.396 1.12,2.438 l -2.26,0 c -0.07,-0.453 -0.22,-0.8 -0.48,-1.039 -0.25,-0.24 -0.59,-0.36 -1.01,-0.36 -0.56,0 -0.98,0.222 -1.26,0.665 -0.28,0.442 -0.42,1.106 -0.42,1.992 0,0.817 0.15,1.448 0.43,1.89 0.29,0.438 0.71,0.657 1.25,0.657 0.42,0 0.76,-0.128 1.02,-0.383 0.25,-0.255 0.42,-0.636 0.5,-1.141 m 3.73,3.203 0,-11.508 2.21,0 0,6.04 2.7,-3.024 2.73,0 -2.96,3.149 3.14,5.343 -2.72,0 -2.03,-3.617 -0.86,0.93 0,2.687 -2.21,0 m 8.35,-2.765 2.26,0 c 0.02,0.432 0.18,0.755 0.47,0.968 0.29,0.209 0.73,0.313 1.31,0.313 0.45,0 0.79,-0.073 1.03,-0.219 0.24,-0.151 0.36,-0.362 0.36,-0.633 0,-0.385 -0.45,-0.674 -1.35,-0.867 -0.37,-0.078 -0.67,-0.146 -0.89,-0.203 -1.1,-0.281 -1.87,-0.615 -2.3,-1 -0.43,-0.385 -0.64,-0.906 -0.64,-1.562 0,-0.87 0.31,-1.558 0.93,-2.063 0.63,-0.51 1.49,-0.766 2.56,-0.766 1.13,0 2.03,0.253 2.67,0.758 0.65,0.505 1,1.216 1.04,2.133 l -2.21,0 c -0.02,-0.359 -0.15,-0.638 -0.42,-0.836 -0.25,-0.198 -0.61,-0.297 -1.07,-0.297 -0.43,0 -0.75,0.065 -0.96,0.196 -0.21,0.13 -0.32,0.325 -0.32,0.585 0,0.339 0.57,0.638 1.7,0.899 0.26,0.057 0.46,0.104 0.62,0.141 1.13,0.265 1.9,0.585 2.31,0.96 0.42,0.375 0.62,0.904 0.62,1.586 0,0.964 -0.34,1.698 -1.02,2.204 -0.68,0.505 -1.66,0.757 -2.96,0.757 -1.17,0 -2.09,-0.263 -2.75,-0.789 -0.66,-0.526 -0.99,-1.25 -0.99,-2.172 l 0,-0.093 m 15.22,-1.43 c 0,-0.854 -0.16,-1.505 -0.48,-1.953 -0.32,-0.453 -0.79,-0.68 -1.41,-0.68 -0.6,0 -1.06,0.224 -1.38,0.672 -0.31,0.448 -0.47,1.102 -0.47,1.961 0,0.802 0.17,1.422 0.49,1.859 0.34,0.438 0.81,0.657 1.41,0.657 0.57,0 1.02,-0.224 1.35,-0.672 0.33,-0.448 0.49,-1.063 0.49,-1.844 m -5.95,7.602 0,-11.899 2.16,0 0,1.149 c 0.33,-0.5 0.7,-0.865 1.1,-1.094 0.4,-0.229 0.88,-0.344 1.43,-0.344 1.04,0 1.89,0.414 2.54,1.242 0.66,0.823 0.98,1.906 0.98,3.25 0,1.36 -0.32,2.464 -0.98,3.313 -0.65,0.843 -1.48,1.265 -2.51,1.265 -0.54,0 -1.03,-0.114 -1.45,-0.343 -0.43,-0.23 -0.78,-0.563 -1.06,-1 l 0,4.461 -2.21,0 m 14.63,-4.461 c -0.28,0.442 -0.66,0.781 -1.12,1.015 -0.47,0.229 -1,0.344 -1.62,0.344 -0.82,0 -1.46,-0.234 -1.91,-0.703 -0.44,-0.469 -0.66,-1.136 -0.66,-2 0,-0.802 0.22,-1.414 0.66,-1.836 0.45,-0.422 1.19,-0.711 2.22,-0.867 0.23,-0.037 0.54,-0.078 0.92,-0.125 0.96,-0.125 1.44,-0.404 1.44,-0.836 0,-0.344 -0.1,-0.589 -0.32,-0.735 -0.21,-0.151 -0.57,-0.226 -1.07,-0.226 -0.46,0 -0.81,0.091 -1.05,0.273 -0.25,0.183 -0.37,0.443 -0.37,0.782 l 0,0.125 -2.12,0 0,-0.157 c 0,-0.87 0.3,-1.552 0.92,-2.047 0.61,-0.5 1.46,-0.75 2.54,-0.75 1.19,0 2.1,0.206 2.73,0.618 0.64,0.411 0.95,1.005 0.95,1.781 l 0,4.828 c 0,0.354 0.04,0.62 0.11,0.797 0.08,0.172 0.2,0.302 0.37,0.39 l 0,0.383 -2.37,0 c -0.08,-0.146 -0.13,-0.307 -0.18,-0.484 -0.04,-0.177 -0.06,-0.367 -0.07,-0.57 m -0.04,-3.125 c -0.37,0.171 -0.79,0.309 -1.28,0.414 -0.48,0.104 -0.72,0.158 -0.74,0.164 -0.4,0.114 -0.68,0.258 -0.84,0.429 -0.16,0.172 -0.24,0.409 -0.24,0.711 0,0.313 0.1,0.563 0.31,0.75 0.2,0.183 0.47,0.274 0.82,0.274 0.61,0 1.09,-0.172 1.44,-0.516 0.36,-0.349 0.53,-0.823 0.53,-1.422 l 0,-0.804 m 9.31,0.976 2.24,0 c -0.09,1.078 -0.49,1.93 -1.18,2.555 -0.69,0.625 -1.58,0.937 -2.67,0.937 -1.24,0 -2.2,-0.401 -2.91,-1.203 -0.69,-0.807 -1.04,-1.922 -1.04,-3.344 0,-1.416 0.35,-2.526 1.07,-3.328 0.72,-0.807 1.7,-1.211 2.96,-1.211 1.1,0 1.98,0.292 2.64,0.875 0.66,0.584 1.04,1.396 1.12,2.438 l -2.26,0 c -0.07,-0.453 -0.22,-0.8 -0.48,-1.039 -0.25,-0.24 -0.59,-0.36 -1.01,-0.36 -0.56,0 -0.98,0.222 -1.26,0.665 -0.28,0.442 -0.42,1.106 -0.42,1.992 0,0.817 0.15,1.448 0.43,1.89 0.29,0.438 0.71,0.657 1.25,0.657 0.42,0 0.76,-0.128 1.02,-0.383 0.25,-0.255 0.42,-0.636 0.5,-1.141 m 8.91,0.625 2.27,0 c -0.23,0.896 -0.69,1.599 -1.39,2.11 -0.69,0.505 -1.54,0.757 -2.54,0.757 -1.23,0 -2.2,-0.411 -2.92,-1.234 -0.72,-0.828 -1.08,-1.948 -1.08,-3.359 0,-1.391 0.35,-2.487 1.06,-3.289 0.71,-0.803 1.68,-1.204 2.91,-1.204 1.3,0 2.3,0.396 3.01,1.188 0.71,0.786 1.07,1.909 1.07,3.367 0,0.162 -0.01,0.284 -0.01,0.367 0,0.078 -0.01,0.154 -0.02,0.227 l -5.67,0 c 0.03,0.666 0.19,1.169 0.48,1.508 0.3,0.338 0.73,0.507 1.28,0.507 0.39,0 0.71,-0.075 0.96,-0.226 0.25,-0.156 0.45,-0.396 0.59,-0.719 m -3.31,-2.562 3.34,0 c -0.02,-0.573 -0.17,-1.008 -0.46,-1.305 -0.28,-0.302 -0.68,-0.453 -1.22,-0.453 -0.49,0 -0.88,0.151 -1.17,0.453 -0.28,0.302 -0.44,0.737 -0.49,1.305"
id="path158"
 />
<path
d="m 840.5,18.146 -42.97,0"
id="path160"
style="fill:none;stroke:#000000;stroke-width:3;" />
<path
d="m 803,25.646 0,-15 -15,7.5 15,7.5 z"
id="path162"
style="" />
<path
d="m 212.9,200.03 -1.82,-1.79 1.94,-2.01 1.88,1.83 c 0.25,-0.47 0.44,-1.01 0.57,-1.61 0.13,-0.6 0.2,-1.26 0.2,-1.97 0,-1.9 -0.43,-3.37 -1.28,-4.42 -0.85,-1.05 -2.04,-1.58 -3.57,-1.58 -1.52,0 -2.7,0.53 -3.54,1.57 -0.84,1.05 -1.27,2.53 -1.27,4.43 0,1.9 0.43,3.38 1.27,4.43 0.84,1.05 2.02,1.57 3.54,1.57 0.39,0 0.76,-0.04 1.1,-0.11 0.35,-0.08 0.68,-0.2 0.98,-0.34 m 2.5,2.35 c -0.59,0.39 -1.27,0.69 -2.05,0.89 -0.77,0.2 -1.62,0.31 -2.53,0.31 -2.58,0 -4.63,-0.82 -6.15,-2.46 -1.52,-1.65 -2.28,-3.86 -2.28,-6.64 0,-2.79 0.76,-5 2.28,-6.63 1.52,-1.64 3.57,-2.46 6.15,-2.46 2.58,0 4.63,0.82 6.15,2.46 1.53,1.64 2.3,3.85 2.3,6.63 0,1.22 -0.16,2.34 -0.47,3.35 -0.31,1.01 -0.77,1.89 -1.38,2.65 l 1.87,1.8 -1.92,2.01 -1.97,-1.91"
id="path180"
 />
<path
d="m 564.55,204.13 -4.94,-17.26 3.68,0 2.95,12.18 2.5,-12.18 3.78,0 2.5,12.18 2.95,-12.18 3.65,0 -4.94,17.26 -3.39,0 -2.67,-13.22 -2.68,13.22 -3.39,0"
id="path182"
 />
<path
d="m 234.42,144.13 0,-17.26 12.53,0 0,3 -9.02,0 0,3.68 8.25,0 0,2.95 -8.25,0 0,4.44 9.44,0 0,3.19 -12.95,0"
id="path184"
 />
<path
d="m 582.05,74.416 4.17,0 c 0.9,0 1.57,-0.184 1.99,-0.551 0.43,-0.367 0.64,-0.945 0.64,-1.734 0,-0.75 -0.2,-1.317 -0.62,-1.699 -0.41,-0.391 -1.03,-0.586 -1.85,-0.586 l -4.33,0 0,4.57 m -3.56,9.715 0,-17.262 8.37,0 c 1.88,0 3.28,0.403 4.19,1.207 0.9,0.805 1.35,2.035 1.35,3.692 0,1.054 -0.22,1.933 -0.66,2.636 -0.44,0.703 -1.07,1.184 -1.9,1.442 0.75,0.265 1.28,0.672 1.59,1.218 0.32,0.547 0.51,1.399 0.55,2.555 l 0.07,2.039 0,0.071 c 0.03,1.031 0.25,1.656 0.67,1.875 l 0,0.527 -3.89,0 c -0.12,-0.242 -0.22,-0.539 -0.29,-0.891 -0.07,-0.359 -0.1,-0.785 -0.12,-1.277 l -0.05,-1.817 c -0.04,-1.07 -0.24,-1.792 -0.61,-2.167 -0.36,-0.375 -1.01,-0.563 -1.95,-0.563 l -3.76,0 0,6.715 -3.56,0"
id="path186"
 />
<path
d="m 538.51,144.13 0,-14.18 -5.12,0 0,-3.08 13.75,0 0,3.08 -5.08,0 0,14.18 -3.55,0"
id="path188"
 />
<path
d="m 347.95,84.131 -3.55,0 0,-6.434 -6.27,-10.828 4.35,0 3.69,7.442 3.41,-7.442 4.06,0 -5.69,10.828 0,6.434"
id="path190"
 />
<path
d="m 293.97,126.34 3.58,0 0,10.83 c 0,1.34 0.27,2.31 0.8,2.93 0.53,0.61 1.37,0.91 2.53,0.91 1.17,0 2.02,-0.3 2.56,-0.91 0.53,-0.61 0.8,-1.59 0.8,-2.93 l 0,-10.83 3.56,0 0,11.22 c 0,2.11 -0.6,3.74 -1.79,4.87 -1.18,1.13 -2.88,1.7 -5.11,1.7 -2.24,0 -3.96,-0.56 -5.15,-1.69 -1.19,-1.13 -1.78,-2.76 -1.78,-4.88 l 0,-11.22"
id="path192"
 />
<path
d="m 358.77,144.13 0,-17.26 3.55,0 0,17.26 -3.55,0"
id="path194"
 />
<path
d="m 176.08,135.04 c 0,1.9 0.43,3.37 1.27,4.43 0.84,1.04 2.02,1.57 3.54,1.57 1.53,0 2.72,-0.53 3.57,-1.57 0.86,-1.06 1.28,-2.53 1.28,-4.43 0,-1.9 -0.42,-3.37 -1.28,-4.42 -0.85,-1.06 -2.04,-1.58 -3.57,-1.58 -1.52,0 -2.7,0.52 -3.54,1.57 -0.84,1.04 -1.27,2.52 -1.27,4.43 m -3.62,0 c 0,-2.79 0.76,-5 2.28,-6.64 1.52,-1.64 3.57,-2.46 6.15,-2.46 2.58,0 4.63,0.82 6.15,2.46 1.53,1.65 2.3,3.86 2.3,6.64 0,2.78 -0.77,4.99 -2.3,6.63 -1.52,1.64 -3.57,2.46 -6.15,2.46 -2.58,0 -4.63,-0.82 -6.15,-2.46 -1.52,-1.64 -2.28,-3.85 -2.28,-6.63"
id="path196"
 />
<path
d="m 282.42,74.861 3.43,0 c 0.93,0 1.6,-0.195 2.03,-0.586 0.42,-0.398 0.63,-1.035 0.63,-1.91 0,-0.82 -0.21,-1.441 -0.62,-1.863 -0.42,-0.422 -1.03,-0.633 -1.85,-0.633 l -3.62,0 0,4.992 m -0.03,3.129 0,6.141 -3.55,0 0,-17.262 7.68,0 c 1.81,0 3.18,0.473 4.11,1.418 0.94,0.938 1.41,2.317 1.41,4.137 0,1.781 -0.46,3.156 -1.37,4.125 -0.92,0.961 -2.22,1.441 -3.92,1.441 l -4.36,0"
id="path198"
 />
<path
d="m 824.3,65.791 2.41,0 0,24 -2.41,0 0,-24 m 3.3,50.569 -5.81,-19.937 1.58,0 5.84,19.937 -1.61,0"
id="path204"
 />
<path
d="m 120.47,130.33 -2.39,7.34 4.79,0 -2.4,-7.34 m -2.06,-3.46 4.1,0 6.22,17.26 -3.72,0 -1.18,-3.55 -6.69,0 -1.13,3.55 -3.74,0 6.14,-17.26"
id="path214"
 />
<path
d="m 653.61,138.79 3.51,0 c 0.13,0.95 0.52,1.65 1.16,2.11 0.64,0.46 1.56,0.68 2.77,0.68 1.04,0 1.81,-0.18 2.34,-0.55 0.52,-0.37 0.78,-0.91 0.78,-1.63 0,-1.04 -1.5,-1.91 -4.51,-2.6 -0.04,-0.01 -0.07,-0.01 -0.11,-0.02 -0.07,-0.02 -0.19,-0.05 -0.36,-0.08 -1.61,-0.36 -2.76,-0.75 -3.44,-1.19 -0.61,-0.39 -1.08,-0.91 -1.4,-1.57 -0.32,-0.66 -0.48,-1.44 -0.48,-2.34 0,-1.68 0.57,-2.97 1.71,-3.86 1.14,-0.9 2.79,-1.35 4.95,-1.35 2.01,0 3.59,0.48 4.72,1.43 1.14,0.96 1.74,2.3 1.8,4.04 l -3.41,0 c -0.06,-0.84 -0.38,-1.48 -0.96,-1.91 -0.57,-0.44 -1.4,-0.66 -2.47,-0.66 -0.93,0 -1.65,0.18 -2.16,0.55 -0.5,0.36 -0.75,0.87 -0.75,1.55 0,0.91 0.98,1.59 2.95,2.05 0.53,0.12 0.94,0.22 1.24,0.29 1.26,0.32 2.15,0.57 2.67,0.75 0.53,0.18 0.99,0.38 1.38,0.6 0.71,0.39 1.23,0.91 1.58,1.56 0.36,0.64 0.53,1.41 0.53,2.31 0,1.79 -0.6,3.19 -1.81,4.18 -1.22,0.98 -2.92,1.48 -5.13,1.48 -2.17,0 -3.87,-0.51 -5.1,-1.52 -1.24,-1 -1.9,-2.44 -2,-4.3"
id="path216"
 />
<path
d="m 416.86,141.01 2.85,0 c 1.65,0 2.84,-0.43 3.57,-1.29 0.75,-0.86 1.12,-2.26 1.12,-4.2 0,-1.93 -0.35,-3.35 -1.03,-4.26 -0.69,-0.9 -1.77,-1.36 -3.23,-1.36 l -3.28,0 0,11.11 m -3.48,3.12 0,-17.26 6.76,0 c 2.65,0 4.62,0.71 5.92,2.14 1.31,1.43 1.96,3.6 1.96,6.51 0,1.58 -0.24,2.97 -0.73,4.17 -0.47,1.2 -1.17,2.17 -2.08,2.91 -0.69,0.54 -1.47,0.94 -2.35,1.18 -0.87,0.23 -2.1,0.35 -3.68,0.35 l -5.8,0"
id="path218"
 />
<path
d="m 399.55,84.131 0,-17.262 12.05,0 0,3 -8.54,0 0,3.914 7.48,0 0,3 -7.48,0 0,7.348 -3.51,0"
id="path220"
 />
<path
d="m 471.02,81.611 c -0.64,0.868 -1.37,1.504 -2.19,1.911 -0.81,0.406 -1.77,0.609 -2.87,0.609 -2.41,0 -4.37,-0.836 -5.87,-2.508 -1.49,-1.679 -2.24,-3.883 -2.24,-6.609 0,-2.75 0.75,-4.949 2.24,-6.598 1.49,-1.648 3.48,-2.472 5.96,-2.472 2.17,0 3.93,0.519 5.3,1.558 1.37,1.031 2.18,2.453 2.44,4.266 l -3.62,0 c -0.22,-0.899 -0.67,-1.582 -1.35,-2.051 -0.67,-0.469 -1.55,-0.703 -2.64,-0.703 -1.44,0 -2.58,0.531 -3.41,1.594 -0.82,1.054 -1.23,2.515 -1.23,4.382 0,1.875 0.43,3.344 1.29,4.407 0.86,1.062 2.04,1.593 3.54,1.593 1.12,0 2.07,-0.332 2.82,-0.996 0.76,-0.664 1.23,-1.574 1.41,-2.73 l -3.91,0 0,-2.953 7.14,0 0,9.34 -2.37,0 -0.44,-2.04"
id="path222"
 />
<path
d="m 473.32,144.13 0,-17.26 3.57,0 0,6.43 7.13,0 0,-6.43 3.57,0 0,17.26 -3.57,0 0,-7.65 -7.13,0 0,7.65 -3.57,0"
id="path224"
 />
<path
d="m 264.97,197.22 3.44,0 0,2.08 c 0,0.6 0.18,1.07 0.54,1.39 0.35,0.31 0.87,0.46 1.54,0.46 0.74,0 1.25,-0.19 1.54,-0.57 0.29,-0.38 0.43,-1.1 0.43,-2.16 l 0,-12.03 3.55,0 0,12.2 c 0,1.09 -0.06,1.9 -0.2,2.41 -0.12,0.51 -0.33,0.96 -0.63,1.35 -0.45,0.58 -1.07,1.02 -1.86,1.32 -0.79,0.31 -1.72,0.46 -2.78,0.46 -0.98,0 -1.84,-0.13 -2.59,-0.4 -0.75,-0.26 -1.38,-0.66 -1.88,-1.18 -0.39,-0.42 -0.68,-0.89 -0.85,-1.41 -0.17,-0.52 -0.25,-1.38 -0.25,-2.58 l 0,-1.34"
id="path226"
 />
<path
d="m 323.49,204.13 0,-17.26 3.55,0 0,7.09 6.74,-7.09 4.44,0 -6.89,6.98 7.52,10.28 -4.34,0 -5.63,-7.9 -1.84,1.83 0,6.07 -3.55,0"
id="path228"
 />
<path
d="m 639.56,84.131 0,-17.262 3.55,0 0,14.075 8.43,0 0,3.187 -11.98,0"
id="path230"
 />
<path
d="m 683.57,204.13 0,-3 9.39,-11.13 -9.2,0 0,-3.13 13.51,0 0,3 -9.41,11.14 9.2,0 0,3.12 -13.49,0"
id="path232"
 />
<path
d="m 383.07,204.13 5.43,-8.81 -5.43,-8.45 4.1,0 3.53,6.03 3.5,-6.03 4.13,0 -5.43,8.42 5.43,8.84 -4.1,0 -3.53,-5.98 -3.53,5.98 -4.1,0"
id="path234"
 />
<path
d="m 533.43,77.721 c -0.13,1.961 -0.89,3.519 -2.27,4.676 -1.38,1.156 -3.17,1.734 -5.39,1.734 -2.56,0 -4.54,-0.797 -5.97,-2.391 -1.41,-1.593 -2.12,-3.828 -2.12,-6.703 0,-2.937 0.73,-5.187 2.17,-6.75 1.45,-1.562 3.52,-2.343 6.23,-2.343 2.21,0 3.95,0.539 5.22,1.617 1.28,1.07 1.98,2.586 2.11,4.547 l -3.5,0 c -0.15,-0.977 -0.55,-1.719 -1.2,-2.227 -0.65,-0.516 -1.52,-0.773 -2.63,-0.773 -1.56,0 -2.75,0.503 -3.56,1.511 -0.81,1.008 -1.22,2.481 -1.22,4.418 0,1.875 0.41,3.324 1.21,4.348 0.81,1.023 1.97,1.535 3.46,1.535 1.08,0 1.96,-0.273 2.65,-0.82 0.68,-0.555 1.13,-1.348 1.33,-2.379 l 3.48,0"
id="path236"
 />
<path
d="m 629.28,204.13 -5.95,-17.26 3.94,0 3.66,12.91 3.74,-12.91 3.89,0 -5.88,17.26 -3.4,0"
id="path238"
 />
<path
d="m 447.11,201.01 4.21,0 c 0.99,0 1.71,-0.18 2.17,-0.54 0.45,-0.35 0.68,-0.92 0.68,-1.69 0,-0.81 -0.23,-1.39 -0.67,-1.74 -0.45,-0.36 -1.18,-0.54 -2.2,-0.54 l -4.19,0 0,4.51 m 0,-7.46 4.06,0 c 0.87,0 1.51,-0.15 1.92,-0.45 0.41,-0.3 0.61,-0.78 0.61,-1.43 0,-0.63 -0.2,-1.09 -0.6,-1.37 -0.39,-0.29 -1.04,-0.43 -1.96,-0.43 l -4.03,0 0,3.68 m -3.4,10.58 0,-17.26 8.14,0 c 1.76,0 3.11,0.37 4.03,1.12 0.93,0.75 1.39,1.83 1.39,3.25 0,0.88 -0.17,1.61 -0.51,2.19 -0.35,0.59 -0.86,1.04 -1.55,1.36 0.89,0.36 1.56,0.88 1.99,1.56 0.45,0.67 0.67,1.51 0.67,2.52 0,1.68 -0.55,2.98 -1.64,3.89 -1.09,0.91 -2.64,1.37 -4.65,1.37 l -7.87,0"
id="path240"
 />
<path
d="m 593.44,144.13 0,-17.26 3.72,0 7,11.86 0,-11.86 3.51,0 0,17.26 -3.67,0 -7.06,-11.86 0,11.86 -3.5,0"
id="path242"
 />
<path
d="m 501.83,204.13 0,-17.26 5.25,0 3.43,13.14 3.39,-13.14 5.27,0 0,17.26 -3.33,0 0,-13.92 -3.5,13.92 -3.63,0 -3.55,-13.92 0,13.92 -3.33,0"
id="path244"
 />
<path
d="m 773,141.11 0,-11.51 8.35,0 0,2 -6.01,0 0,2.45 5.5,0 0,1.97 -5.5,0 0,2.96 6.29,0 0,2.13 -8.63,0 m 10.24,0 0,-8.49 2.23,0 0,1 c 0.32,-0.41 0.69,-0.71 1.12,-0.92 0.44,-0.21 0.92,-0.31 1.45,-0.31 0.94,0 1.64,0.25 2.1,0.73 0.47,0.49 0.7,1.22 0.7,2.2 l 0,5.79 -2.27,0 0,-5.13 c 0,-0.61 -0.1,-1.05 -0.31,-1.31 -0.21,-0.26 -0.54,-0.39 -1,-0.39 -0.54,0 -0.96,0.16 -1.28,0.49 -0.31,0.31 -0.46,0.75 -0.46,1.3 l 0,5.04 -2.28,0 m 13.34,0.06 c -0.21,0.01 -0.46,0.01 -0.75,0.03 -0.29,0.01 -0.47,0.02 -0.55,0.02 -0.87,0 -1.46,-0.16 -1.79,-0.49 -0.32,-0.32 -0.47,-0.97 -0.47,-1.93 l 0,-4.59 -1.13,0 0,-1.59 1.13,0 0,-2.32 2.25,0 0,2.32 1.31,0 0,1.59 -1.31,0 0,4.7 c 0,0.23 0.05,0.38 0.14,0.45 0.1,0.07 0.31,0.1 0.61,0.1 l 0.56,0 0,1.71 m 6.55,-2.64 2.27,0 c -0.23,0.9 -0.69,1.6 -1.39,2.11 -0.69,0.51 -1.54,0.76 -2.54,0.76 -1.23,0 -2.2,-0.41 -2.92,-1.24 -0.72,-0.82 -1.08,-1.94 -1.08,-3.36 0,-1.39 0.35,-2.48 1.06,-3.28 0.71,-0.81 1.68,-1.21 2.91,-1.21 1.3,0 2.3,0.4 3.01,1.19 0.71,0.79 1.07,1.91 1.07,3.37 0,0.16 -0.01,0.28 -0.01,0.36 0,0.08 -0.01,0.16 -0.02,0.23 l -5.67,0 c 0.03,0.67 0.19,1.17 0.48,1.51 0.3,0.34 0.73,0.51 1.28,0.51 0.39,0 0.71,-0.08 0.96,-0.23 0.25,-0.16 0.45,-0.4 0.59,-0.72 m -3.31,-2.56 3.34,0 c -0.02,-0.57 -0.17,-1.01 -0.46,-1.31 -0.28,-0.3 -0.68,-0.45 -1.22,-0.45 -0.49,0 -0.88,0.15 -1.17,0.45 -0.28,0.31 -0.44,0.74 -0.49,1.31 m 7.2,5.14 0,-8.49 2.11,0 0,1.45 c 0.3,-0.58 0.65,-1.01 1.04,-1.28 0.4,-0.28 0.87,-0.41 1.42,-0.41 l 0.2,0 c 0.05,0 0.09,0.01 0.12,0.01 l 0.01,2.31 -0.76,0 c -0.62,0 -1.08,0.16 -1.39,0.48 -0.32,0.32 -0.47,0.8 -0.47,1.44 l 0,4.49 -2.28,0"
id="path250"
 />
<path
d="m 788,173 0,-15 -15,7.5 15,7.5 z"
id="path252"
style="" />
<path
d="m 810.5,150.5 0,15 -30,0"
id="path254"
style="fill:none;stroke:#000000;stroke-width:3;" />
<path
d="m 703.85,79.115 c 0,-0.086 0,-0.199 -0.01,-0.34 -0.01,-0.148 -0.01,-0.258 -0.01,-0.328 0,-0.688 0.07,-1.258 0.22,-1.711 0.15,-0.461 0.39,-0.891 0.72,-1.289 0.25,-0.297 0.62,-0.637 1.11,-1.02 0.5,-0.382 0.82,-0.66 0.97,-0.832 0.31,-0.351 0.53,-0.668 0.65,-0.949 0.11,-0.281 0.17,-0.59 0.17,-0.926 0,-0.742 -0.21,-1.32 -0.62,-1.734 -0.41,-0.414 -0.99,-0.621 -1.73,-0.621 -0.75,0 -1.33,0.25 -1.76,0.75 -0.42,0.492 -0.65,1.187 -0.69,2.086 l -3.31,0 0,-0.364 c 0,-1.648 0.52,-2.96 1.56,-3.937 1.05,-0.984 2.45,-1.477 4.22,-1.477 1.8,0 3.24,0.465 4.3,1.395 1.07,0.922 1.61,2.16 1.61,3.715 0,0.547 -0.07,1.039 -0.19,1.476 -0.12,0.43 -0.3,0.825 -0.55,1.184 -0.32,0.453 -0.82,0.945 -1.49,1.477 -0.67,0.523 -1.07,0.847 -1.21,0.972 -0.29,0.289 -0.51,0.594 -0.64,0.914 -0.13,0.321 -0.19,0.703 -0.19,1.149 0,0.039 0,0.105 0.01,0.199 0.01,0.094 0.01,0.164 0.01,0.211 l -3.15,0 m -0.16,5.015 0,-3.433 3.45,0 0,3.433 -3.45,0 m -1.97,32.23 5.81,-19.937 1.61,0 -5.84,19.937 -1.58,0"
id="path274"
 />

<text
x="111.87124"
y="167.30603"
id="text3622"
><tspan
id="tspan3624"
 x="111.87124"
 y="167.30603">M-x</tspan></text>

 <text
x="177.33948"
y="169.56355"
id="text3626"
><tspan
id="tspan3628"
 x="177.33948"
 y="169.56355">↩</tspan></text>

 <text
x="437.70737"
y="225.24916"
id="text3630"
><tspan
id="tspan3632"
 x="437.70737"
 y="225.24916">isearch</tspan></text>

 <text
x="531.01837"
y="97.322739"
id="text3634"
><tspan
id="tspan3636"
 x="531.01837"
 y="97.322739">↑</tspan></text>

 <text
x="541.55353"
y="164.29599"
id="text3638"
><tspan
id="tspan3640"
 x="541.55353"
 y="164.29599">↓</tspan></text>

 <text
x="596.48663"
y="162.03847"
id="text3642"
><tspan
id="tspan3644"
 x="596.48663"
 y="162.03847">→</tspan></text>

 <text
x="479.09531"
y="162.79097"
id="text3646"
><tspan
id="tspan3648"
 x="479.09531"
 y="162.79097">←</tspan></text>

 <text
x="416.07303"
y="161.08881"
id="text3650"
><tspan
id="tspan3652"
 x="416.07303"
 y="161.08881">⇤↖</tspan></text>

 <text
x="659.77655"
y="162.68512"
id="text3654"
><tspan
id="tspan3656"
 x="659.77655"
 y="162.68512">⇥↘</tspan></text>

 <text
x="237.28618"
y="164.28143"
id="text3658"
><tspan
id="tspan3660"
 x="237.28618"
 y="164.28143">⌫</tspan></text>

 <text
x="296.3497"
y="160.02461"
id="text3662"
><tspan
id="tspan3664"
 x="296.3497"
 y="160.02461">insert</tspan></text>

 <text
x="402.77045"
y="108.41054"
id="text3666"
><tspan
id="tspan3668"
 x="402.77045"
 y="108.41054">undo</tspan></text>

 <text
x="458.64133"
y="105.21792"
id="text3670"
><tspan
id="tspan3672"
 x="458.64133"
 y="105.21792">←word</tspan></text>

 <text
x="578.89679"
y="103.62161"
id="text3674"
><tspan
id="tspan3676"
 x="578.89679"
 y="103.62161">→word</tspan></text>

 <text
x="635.2998"
y="102.5574"
id="text3678"
><tspan
id="tspan3680"
 x="635.2998"
 y="102.5574">␣insert</tspan></text>

 <text
x="354.349"
y="162.15302"
id="text3682"
><tspan
id="tspan3684"
 x="354.349"
 y="162.15302">⌦¶</tspan></text>

 <text
x="338.918"
y="101.49319"
id="text3686"
><tspan
id="tspan3688"
 x="338.918"
 y="101.49319">mark</tspan></text>

 <text
x="280.38657"
y="105.75002"
id="text3690"
><tspan
id="tspan3692"
 x="280.38657"
 y="105.75002">⌦w</tspan></text>

 <text
x="218.13045"
y="106.81423"
id="text3694"
><tspan
id="tspan3696"
 x="218.13045"
 y="106.81423">⌫w</tspan></text>

 <text
x="158.00272"
y="105.21792"
id="text3698"
><tspan
id="tspan3700"
 x="158.00272"
 y="105.21792">⌦␣⌫</tspan></text>

 <text
x="308.60645"
y="45.181488"
id="text3702"
><tspan
id="tspan3704"
 x="308.60645"
 y="45.181488">⌦</tspan></text>

 <text
x="89.361328"
y="93.511635"
id="text3706"
><tspan
id="tspan3708"
 x="89.361328"
 y="93.511635">reformat</tspan><tspan

 x="89.361328"
 y="112.26163"
 id="tspan3710">lines</tspan></text>

 <text
x="322.9549"
y="227.06969"
id="text3712"
><tspan
id="tspan3714"
 x="322.9549"
 y="227.06969">paste</tspan></text>

 <text
x="213.07544"
y="228.39993"
id="text3716"
><tspan
id="tspan3718"
 x="213.07544"
 y="228.39993">cut</tspan></text>

 <text
x="265.48767"
y="227.06969"
id="text3720"
><tspan
id="tspan3722"
 x="265.48767"
 y="227.06969">copy</tspan></text>

 <text
x="152.14957"
y="229.46413"
id="text3724"
><tspan
id="tspan3726"
 x="152.14957"
 y="229.46413">cmt</tspan></text>

 <text
x="504.93436"
y="222.81285"
id="text3728"
><tspan
id="tspan3730"
 x="504.93436"
 y="222.81285">←(</tspan></text>

 <text
x="623.0614"
y="223.87706"
id="text3732"
><tspan
id="tspan3734"
 x="623.0614"
 y="223.87706">→)</tspan></text>

 <text
x="680.52863"
y="221.74864"
id="text3736"
><tspan
id="tspan3738"
 x="680.52863"
 y="221.74864">goto()</tspan></text>

 <text
x="559.52063"
y="218.42691"
id="text3740"
><tspan
id="tspan3742"
 x="559.52063"
 y="218.42691">next</tspan><tspan

 x="559.52063"
 y="237.17691"
 id="tspan3744">window</tspan></text>

 <text
x="204.29575"
y="50.943333"
id="text3746"
><tspan
id="tspan3748"
 x="204.29575"
 y="50.943333" /></text>

 <text
x="247.08444"
y="45.052376"
id="text3750"
><tspan
id="tspan3752"
 x="247.08444"
 y="45.052376">split --</tspan></text>

 <text
x="185.61707"
y="33.359531"
id="text3754"
><tspan

 x="185.61707"
 y="33.359531"
 id="tspan3758">unsplit</tspan></text>

 <text
x="365.77826"
y="46.753422"
id="text3764"
><tspan

 x="365.77826"
 y="46.753422"
 id="tspan3768">select¶</tspan></text>

 <text
x="424.91473"
y="41.637123"
id="text3772"
><tspan
id="tspan3774"
 x="424.91473"
 y="41.637123">select</tspan><tspan

 x="424.91473"
 y="60.387123"
 id="tspan3776">line</tspan></text>

 <text
x="483.61038"
y="35.617058"
id="text3778"
><tspan
id="tspan3780"
 x="483.61038"
 y="35.617058">select</tspan><tspan
 x="483.61038"
 y="54.367058"
 id="tspan3782">word</tspan></text>

 <text
x="541.81171"
y="47.581558"
id="text3784"
><tspan
id="tspan3786"
 x="541.81171"
 y="47.581558">select“”</tspan></text>

 <text
x="227.75752"
y="84.530098"
id="text3788"
><tspan
id="tspan3790"
 x="227.75752"
 y="84.530098" /></text>

 <text
x="357.00952"
y="277.08743"
id="text3792"
><tspan
id="tspan3794"
 x="357.00952"
 y="277.08743">leader key</tspan></text>

 <text
x="8.0250835"
y="151.50334"
id="text3796"
><tspan
id="tspan3798"
 x="8.0250835"
 y="151.50334">Cmd Mode</tspan></text>

<g
style="font-size:25px">

<text
x="69.730766"
y="16.804348"
id="text3800"
><tspan
id="tspan3802"
 x="69.730766"
 y="16.804348" /></text>

<text
x="68.609283"
y="23.273937"
id="text3804"
><tspan
id="tspan3806"
 x="68.609283"
 y="23.273937">1</tspan></text>

<text
x="132.46173"
y="23.806042"
id="text3808"
><tspan
id="tspan3810"
 x="132.46173"
 y="23.806042">2</tspan></text>

<text
x="189.92894"
y="21.677628"
id="text3812"
><tspan
id="tspan3814"
 x="189.92894"
 y="21.677628">3</tspan></text>

<text
x="248.99246"
y="23.806042"
id="text3816"
><tspan
id="tspan3818"
 x="248.99246"
 y="23.806042">4</tspan></text>

<text
x="308.58807"
y="23.273937"
id="text3820"
><tspan
id="tspan3822"
 x="308.58807"
 y="23.273937">5</tspan></text>

<text
x="366.5874"
y="24.870249"
id="text3824"
><tspan
id="tspan3826"
 x="366.5874"
 y="24.870249">6</tspan></text>

<text
x="428.31143"
y="23.273937"
id="text3828"
><tspan
id="tspan3830"
 x="428.31143"
 y="23.273937">7</tspan></text>

<text
x="485.77863"
y="21.145523"
id="text3832"
><tspan
id="tspan3834"
 x="485.77863"
 y="21.145523">8</tspan></text>

<text
x="545.90637"
y="24.870251"
id="text3836"
><tspan
id="tspan3838"
 x="545.90637"
 y="24.870251">9</tspan></text>

<text
x="605.50195"
y="23.806042"
id="text3840"
><tspan
id="tspan3842"
 x="605.50195"
 y="23.806042">0</tspan></text>

<text
x="175.03004"
y="332.42624"
id="text3844"
><tspan
id="tspan3846"
 x="175.03004"
 y="332.42624">xah fly keys command mode layout</tspan></text>

</g>

</svg>
